# xmcd CD database file
#
# Track frame offsets:
#	150
#	16936
#	28279
#	40857
#	53833
#	68149
#	83228
#	94325
#	108783
#	121846
#	135160
#	151340
#	163381
#
# Disc length: 2393 seconds
#
# Revision: 0
# Processed by: cddbd v1.5.2PL0 Copyright (c) Steve Scherf et al.
# Submitted via: CDex 1.51
#
DISCID=a109570d
DTITLE=the cyborgs - Electric Chair
DYEAR=1900
DGENRE=Blues
TTITLE0=Following Blues
TTITLE1=ho ha doobie doo ha
TTITLE2=eleven
TTITLE3=electric chair
TTITLE4=doctor
TTITLE5=claustrophobic
TTITLE6=gag time
TTITLE7=groupie
TTITLE8=the shoes for dance
TTITLE9=I know you kow
TTITLE10=last war
TTITLE11=lonley mask
TTITLE12=my sharona
EXTD=
EXTT0=
EXTT1=
EXTT2=
EXTT3=
EXTT4=
EXTT5=
EXTT6=
EXTT7=
EXTT8=
EXTT9=
EXTT10=
EXTT11=
EXTT12=
PLAYORDER=
